<?xml version="1.0" encoding="utf-8"?><svg width="auto" height="1120" style="overflow:visible " version="1.1" xmlns="http://www.w3.org/2000/svg"><rect x="20" y="20" width="200" height="40" style="fill:white;stroke:black;stroke-width:1" /><text x="30" y="30" font-size="10" style="fill:blue">rutas</text><rect x="240" y="20" width="200" height="40" style="fill:white;stroke:black;stroke-width:1" /><text x="250" y="30" font-size="10" style="fill:blue">ruta</text><path d="M220 40 C240 40 220 40 240 40" style="fill:transparent;stroke:black" /><text x="250" y="40" font-size="8" style="fill:black">lugarInicio: lugarInicio</text><text x="250" y="50" font-size="8" style="fill:black">direccionInicio: direccion</text><text x="250" y="60" font-size="8" style="fill:black">descripcion: descripcion</text><text x="250" y="70" font-size="8" style="fill:black">agencia: agencia</text><text x="250" y="80" font-size="8" style="fill:black">duracion: dura</text><rect x="460" y="20" width="200" height="40" style="fill:white;stroke:black;stroke-width:1" /><text x="470" y="30" font-size="10" style="fill:blue">tipoRuta</text><path d="M440 40 C460 40 440 40 460 40" style="fill:transparent;stroke:black" /><rect x="526" y="20" width="137" height="40" style="fill:green;stroke:black;stroke-width:1" /><text x="536" y="30" font-size="8" style="fill:white">Silvestre</text><rect x="460" y="70" width="200" height="40" style="fill:white;stroke:black;stroke-width:1" /><text x="470" y="80" font-size="10" style="fill:blue">medioTransporte</text><path d="M440 40 C460 40 440 90 460 90" style="fill:transparent;stroke:black" /><rect x="526" y="70" width="137" height="40" style="fill:green;stroke:black;stroke-width:1" /><text x="536" y="80" font-size="8" style="fill:white">Coche</text><rect x="460" y="120" width="200" height="40" style="fill:white;stroke:black;stroke-width:1" /><text x="470" y="130" font-size="10" style="fill:blue">fechaInicio</text><path d="M440 40 C460 40 440 140 460 140" style="fill:transparent;stroke:black" /><rect x="526" y="120" width="137" height="40" style="fill:green;stroke:black;stroke-width:1" /><text x="536" y="130" font-size="8" style="fill:white">12/12/12</text><rect x="460" y="170" width="200" height="40" style="fill:white;stroke:black;stroke-width:1" /><text x="470" y="180" font-size="10" style="fill:blue">horaInicio</text><path d="M440 40 C460 40 440 190 460 190" style="fill:transparent;stroke:black" /><rect x="526" y="170" width="137" height="40" style="fill:green;stroke:black;stroke-width:1" /><text x="536" y="180" font-size="8" style="fill:white">12:00</text><rect x="460" y="220" width="200" height="40" style="fill:white;stroke:black;stroke-width:1" /><text x="470" y="230" font-size="10" style="fill:blue">personasAdecuadas</text><path d="M440 40 C460 40 440 240 460 240" style="fill:transparent;stroke:black" /><rect x="526" y="220" width="137" height="40" style="fill:green;stroke:black;stroke-width:1" /><text x="536" y="230" font-size="8" style="fill:white">No niños</text><rect x="460" y="270" width="200" height="40" style="fill:white;stroke:black;stroke-width:1" /><text x="470" y="280" font-size="10" style="fill:blue">coordenadasInicio</text><path d="M440 40 C460 40 440 290 460 290" style="fill:transparent;stroke:black" /><rect x="526" y="270" width="137" height="40" style="fill:green;stroke:black;stroke-width:1" /><text x="536" y="280" font-size="8" style="fill:white">8 grados norte</text><rect x="460" y="320" width="200" height="40" style="fill:white;stroke:black;stroke-width:1" /><text x="470" y="330" font-size="10" style="fill:blue">referencias</text><path d="M440 40 C460 40 440 340 460 340" style="fill:transparent;stroke:black" /><rect x="680" y="320" width="200" height="40" style="fill:white;stroke:black;stroke-width:1" /><text x="690" y="330" font-size="10" style="fill:blue">referencia</text><path d="M660 340 C680 340 660 340 680 340" style="fill:transparent;stroke:black" /><rect x="746" y="320" width="137" height="40" style="fill:green;stroke:black;stroke-width:1" /><text x="756" y="330" font-size="8" style="fill:white">Una referencia</text><rect x="680" y="370" width="200" height="40" style="fill:white;stroke:black;stroke-width:1" /><text x="690" y="380" font-size="10" style="fill:blue">referencia</text><path d="M660 340 C680 340 660 390 680 390" style="fill:transparent;stroke:black" /><rect x="746" y="370" width="137" height="40" style="fill:green;stroke:black;stroke-width:1" /><text x="756" y="380" font-size="8" style="fill:white">Otra referencia</text><rect x="460" y="470" width="200" height="40" style="fill:white;stroke:black;stroke-width:1" /><text x="470" y="480" font-size="10" style="fill:blue">hitos</text><path d="M440 40 C460 40 440 490 460 490" style="fill:transparent;stroke:black" /><rect x="680" y="470" width="200" height="40" style="fill:white;stroke:black;stroke-width:1" /><text x="690" y="480" font-size="10" style="fill:blue">hito</text><path d="M660 490 C680 490 660 490 680 490" style="fill:transparent;stroke:black" /><text x="690" y="490" font-size="8" style="fill:black">nombre: super hito</text><text x="690" y="500" font-size="8" style="fill:black">descripcion: un hito interesante</text><rect x="900" y="470" width="200" height="40" style="fill:white;stroke:black;stroke-width:1" /><text x="910" y="480" font-size="10" style="fill:blue">coordenadas</text><path d="M880 490 C900 490 880 490 900 490" style="fill:transparent;stroke:black" /><rect x="966" y="470" width="137" height="40" style="fill:green;stroke:black;stroke-width:1" /><text x="976" y="480" font-size="8" style="fill:white">8 grados sur</text><rect x="900" y="520" width="200" height="40" style="fill:white;stroke:black;stroke-width:1" /><text x="910" y="530" font-size="10" style="fill:blue">distanciaAnterior</text><path d="M880 490 C900 490 880 540 900 540" style="fill:transparent;stroke:black" /><rect x="966" y="520" width="137" height="40" style="fill:green;stroke:black;stroke-width:1" /><text x="976" y="530" font-size="8" style="fill:white">4km</text><rect x="900" y="570" width="200" height="40" style="fill:white;stroke:black;stroke-width:1" /><text x="910" y="580" font-size="10" style="fill:blue">fotoHitos</text><path d="M880 490 C900 490 880 590 900 590" style="fill:transparent;stroke:black" /><rect x="1120" y="570" width="200" height="40" style="fill:white;stroke:black;stroke-width:1" /><text x="1130" y="580" font-size="10" style="fill:blue">fotoHito</text><path d="M1100 590 C1120 590 1100 590 1120 590" style="fill:transparent;stroke:black" /><rect x="1186" y="570" width="137" height="40" style="fill:green;stroke:black;stroke-width:1" /><text x="1196" y="580" font-size="8" style="fill:white">una foto</text><rect x="1120" y="620" width="200" height="40" style="fill:white;stroke:black;stroke-width:1" /><text x="1130" y="630" font-size="10" style="fill:blue">fotoHito</text><path d="M1100 590 C1120 590 1100 640 1120 640" style="fill:transparent;stroke:black" /><rect x="1186" y="620" width="137" height="40" style="fill:green;stroke:black;stroke-width:1" /><text x="1196" y="630" font-size="8" style="fill:white">otra foto</text><rect x="900" y="720" width="200" height="40" style="fill:white;stroke:black;stroke-width:1" /><text x="910" y="730" font-size="10" style="fill:blue">videosHito</text><path d="M880 490 C900 490 880 740 900 740" style="fill:transparent;stroke:black" /><rect x="1120" y="720" width="200" height="40" style="fill:white;stroke:black;stroke-width:1" /><text x="1130" y="730" font-size="10" style="fill:blue">videoHito</text><path d="M1100 740 C1120 740 1100 740 1120 740" style="fill:transparent;stroke:black" /><rect x="1186" y="720" width="137" height="40" style="fill:green;stroke:black;stroke-width:1" /><text x="1196" y="730" font-size="8" style="fill:white">Un video</text><rect x="1120" y="770" width="200" height="40" style="fill:white;stroke:black;stroke-width:1" /><text x="1130" y="780" font-size="10" style="fill:blue">videoHito</text><path d="M1100 740 C1120 740 1100 790 1120 790" style="fill:transparent;stroke:black" /><rect x="1186" y="770" width="137" height="40" style="fill:green;stroke:black;stroke-width:1" /><text x="1196" y="780" font-size="8" style="fill:white">Otro video</text><rect x="460" y="970" width="200" height="40" style="fill:white;stroke:black;stroke-width:1" /><text x="470" y="980" font-size="10" style="fill:blue">recomendacion</text><path d="M440 40 C460 40 440 990 460 990" style="fill:transparent;stroke:black" /><rect x="526" y="970" width="137" height="40" style="fill:green;stroke:black;stroke-width:1" /><text x="536" y="980" font-size="8" style="fill:white">6</text></svg>